PathFileType	4	(X/Y/Z)	PS_ngait_og_ss11.trc	
DataRate	CameraRate	NumFrames	NumMarkers	Units	OrigDataRate	OrigDataStartFrame	OrigNumFrames	
120.00	120.00	8	39	mm	120.00	767	132	
Frame#	Time	Sternum			Neck			RShoulder			LShoulder			Xiphoid			Thoracic			RAsis			LAsis			RPsis			LPsis			LThighSuperior			LThighInferior			LThighLateral			LShankSuperior			LShankInferior			LShankLateral			RThighSuperior			RThighInferior			RThighLateral			RShankSuperior			RShankInferior			RShankLateral			RHeel			RToe			RMidfootMedial			RMidfootLateral			RHindfoot			RMidfootSuperior			RToeMedial			RToeLateral			LHeel			LToe			LMidfootMedial			LMidfootLateral			LHindfoot			LMidfootSuperior			LToeMedial			LToeLateral			Sacral			
		X1	Y1	Z1	X2	Y2	Z2	X3	Y3	Z3	X4	Y4	Z4	X5	Y5	Z5	X6	Y6	Z6	X7	Y7	Z7	X8	Y8	Z8	X9	Y9	Z9	X10	Y10	Z10	X11	Y11	Z11	X12	Y12	Z12	X13	Y13	Z13	X14	Y14	Z14	X15	Y15	Z15	X16	Y16	Z16	X17	Y17	Z17	X18	Y18	Z18	X19	Y19	Z19	X20	Y20	Z20	X21	Y21	Z21	X22	Y22	Z22	X23	Y23	Z23	X24	Y24	Z24	X25	Y25	Z25	X26	Y26	Z26	X27	Y27	Z27	X28	Y28	Z28	X29	Y29	Z29	X30	Y30	Z30	X31	Y31	Z31	X32	Y32	Z32	X33	Y33	Z33	X34	Y34	Z34	X35	Y35	Z35	X36	Y36	Z36	X37	Y37	Z37	X38	Y38	Z38	X39	Y39	Z39	

34	0.275	438.10611	1458.27686	140.06946	271.78033	1556.31482	136.34451	317.30521	1549.48462	299.11838	307.12686	1543.66724	-0.23255	470.77072	1301.21753	155.08237	191.35915	1338.09790	148.91193	375.20453	1035.49438	299.11435	396.15747	1029.08508	24.88731	191.96704	1060.12292	205.76314	193.29358	1050.92468	102.39579	332.06992	847.93280	-22.68166	368.28860	619.15442	22.69580	437.80685	727.19592	63.75382	368.84265	380.40607	28.17934	335.37811	183.48691	66.51690	387.07623	278.04218	101.12796	352.22971	839.10730	348.81036	416.44724	610.54395	344.40381	464.72940	772.97052	287.39755	358.42212	485.04007	356.79761	206.81371	284.34070	318.04572	329.13278	355.55594	278.83090	70.80231	245.40105	267.64795	309.14108	40.31830	259.99066	219.97260	87.80817	213.03371	215.64076	77.36269	328.78021	176.20311	110.94044	323.09988	227.47653	154.05269	269.92017	257.40518	63.82055	214.63602	258.95212	54.62951	317.69739	239.11961	64.24415	124.34623	551.70441	58.71147	86.06834	455.27991	36.27935	147.64799	446.46509	32.77090	30.57279	392.17749	30.80184	44.04648	427.47675	96.63560	99.15849	497.83307	36.75534	139.56329	491.12100	42.16068	35.90437	192.63031	1055.52380	154.07947 
35	0.283	446.57489	1459.38379	139.91833	280.29700	1557.27783	136.25047	325.66870	1550.23352	298.90973	315.57614	1544.94421	-0.40869	479.23468	1302.20630	154.44078	199.76163	1339.12463	148.53590	383.74411	1036.60120	298.78293	404.43875	1029.99438	24.62067	200.42824	1061.14551	205.56444	201.65483	1051.87256	102.32690	337.44543	847.76294	-22.23922	371.82642	619.16071	22.83232	442.57019	726.56195	63.83252	370.49960	380.64508	28.05108	335.88358	183.66672	66.46539	388.09625	278.08215	101.09776	363.40671	840.81927	348.39587	430.07050	613.23108	343.74811	476.10611	776.13263	287.19180	375.07108	485.55511	356.75314	230.29668	279.95560	318.31641	348.07657	354.47003	277.70349	94.50759	235.29871	267.70526	341.97000	40.78591	261.25281	250.49905	84.47953	214.27623	246.87402	74.66566	330.16763	205.95625	106.45396	324.28177	255.82980	151.19734	270.86472	289.13733	61.90420	215.98990	291.48950	53.41998	319.09665	239.15164	64.36803	124.32576	551.77448	58.50926	86.05647	455.33899	36.30543	147.70680	446.46008	32.77114	30.52837	392.24670	30.89292	44.20615	427.52386	96.56815	99.18964	497.89026	36.68866	139.59390	491.12485	42.06651	35.93702	201.04153	1056.50903	153.94568 
36	0.292	455.10773	1460.40674	139.77878	288.82434	1558.15820	136.05115	334.07016	1550.78845	298.85132	324.08688	1546.07751	-0.45944	487.69504	1302.91663	154.08621	208.23148	1340.00012	148.33530	392.32535	1037.21448	298.38547	412.58020	1031.01770	24.30397	208.88029	1062.11328	205.51756	209.87556	1052.67285	102.27319	342.79568	847.65491	-21.50549	375.40115	619.14142	22.93644	447.30820	725.98981	64.20251	372.18335	380.89417	27.79364	336.45486	183.78972	66.58174	388.97284	277.88834	100.91129	375.40573	842.18799	348.10278	443.37616	615.61810	343.07581	487.24750	779.31268	286.95667	391.66110	485.74744	356.49188	253.50407	275.36237	318.47183	366.29282	352.28412	275.82111	118.71353	224.96936	267.98257	375.15726	42.67903	262.52597	281.84750	80.80753	215.64015	278.41071	72.05495	331.39035	236.10928	101.60828	325.28226	283.24316	148.39642	271.40521	321.17633	60.54141	217.21596	324.19049	53.09380	320.38553	239.16850	64.46325	124.29206	551.76263	58.33101	85.92455	455.60071	36.33601	148.09544	446.55920	32.71662	30.56642	392.17273	30.97793	44.13715	427.68246	96.48685	99.30277	498.12051	36.65931	139.76471	490.84586	41.87626	36.13409	209.37793	1057.39307	153.89539 
37	0.300	463.50021	1461.18518	139.52788	297.32608	1558.82617	135.89053	342.46033	1551.29236	298.68002	332.58215	1547.01306	-0.45304	496.08813	1303.54871	153.68257	216.69815	1340.67603	148.06998	400.46506	1037.93408	297.87360	420.70749	1031.07385	24.16816	217.04810	1062.89868	204.96121	218.12939	1053.48315	102.25824	348.19269	847.55341	-21.23750	379.01343	619.11102	22.98713	452.09302	725.42419	64.10676	373.77344	380.76779	27.59225	337.00934	183.88474	66.60339	389.86707	277.58789	100.72517	384.01001	843.96930	348.57297	456.24060	617.90045	342.41022	498.54977	782.53528	286.83783	407.92374	485.81064	356.24475	277.06546	270.45828	318.55783	387.48053	352.38669	276.11343	143.84470	214.34030	268.36847	407.59274	43.56870	263.62244	313.23761	77.83598	216.39571	310.60001	69.31787	332.46408	266.94879	96.68858	326.24765	311.74829	145.80351	271.69037	353.09943	59.14256	218.08194	356.11703	52.37539	321.29828	239.24850	64.55968	124.34660	551.83698	58.08903	85.90904	457.87634	38.69296	149.54265	446.54218	32.71365	30.53294	392.17526	30.98313	44.12825	427.73630	96.47559	99.33036	499.02249	38.12483	141.20790	489.79196	41.29046	37.65011	217.58875	1058.19092	153.60973 
38	0.308	471.92871	1461.79297	139.28517	305.85468	1559.37964	135.72525	350.88235	1551.68640	298.63693	340.94815	1547.79321	-0.51103	504.56241	1304.18762	153.11319	225.13452	1341.21301	147.97279	408.46713	1038.14270	297.22354	428.86484	1031.16602	23.97424	225.15456	1063.48511	204.20186	226.40096	1054.17493	102.18855	353.63300	847.34094	-20.57110	382.66446	619.08319	22.97200	456.92105	724.74756	64.40942	375.22168	380.70639	27.78818	337.59729	184.09785	66.58765	390.84338	277.36942	100.39935	393.40961	844.86212	348.54199	468.88760	619.90479	341.69962	509.17163	785.10315	286.52313	424.03891	485.70148	355.78030	300.69507	265.34912	318.73557	408.39340	352.22659	276.08817	169.63834	202.90074	269.63910	441.04581	44.72629	264.76083	345.08246	73.71096	216.49338	342.92526	66.74368	333.62143	298.02505	91.96627	327.16861	340.34958	142.33284	270.79684	386.06802	56.90979	218.77159	388.94958	51.97345	322.09558	239.32423	64.61860	124.29720	551.96649	57.77430	85.92980	458.60443	39.18291	150.19731	446.54822	32.69260	30.48253	392.17871	30.98241	44.14211	427.86966	96.37421	99.35923	499.46701	38.33341	141.71295	489.48779	41.03860	38.21156	225.77776	1058.83008	153.19521 
39	0.317	480.43073	1462.12244	139.16394	314.36877	1559.81592	135.56015	359.27612	1551.98865	298.47821	349.40366	1548.43506	-0.49236	512.97083	1304.45703	152.88951	233.51085	1341.72681	147.80229	417.54099	1038.72461	297.40839	436.89966	1031.86328	23.73064	233.88017	1064.20471	205.12198	234.54301	1054.51343	102.31879	359.15652	847.05212	-20.27787	386.35690	619.06836	22.88699	461.83234	723.99457	64.33891	376.78372	380.64523	27.83164	338.19046	184.28848	66.59173	392.05905	277.35544	100.52600	402.68985	845.91357	348.13440	481.09851	621.78833	341.00702	519.69916	787.39697	286.13721	439.84177	485.35660	355.09457	324.66232	260.32730	318.99896	428.81848	351.24051	275.86472	195.60449	192.82887	269.46594	474.55634	46.55901	265.66013	377.59326	69.42239	216.76974	375.57550	64.30444	334.59879	329.64285	87.33145	328.00650	368.71976	138.67450	269.73007	419.16565	54.96033	219.32121	421.94086	51.97018	322.72272	239.35609	64.82812	124.42209	552.13788	57.53046	85.90039	456.81714	37.39858	148.94032	446.55652	32.68543	30.41819	392.21606	30.89310	44.20121	427.94608	96.33302	99.35938	498.79007	37.03713	140.48918	490.53360	41.29941	36.88849	234.21159	1059.35901	153.72038 
40	0.325	488.77853	1462.32947	138.99991	322.84460	1560.09595	135.43927	367.68610	1552.22681	298.37589	357.87546	1548.93860	-0.55549	521.26135	1304.43860	152.56091	241.92398	1342.05090	147.71147	426.63449	1039.42004	297.65527	444.90079	1032.54724	23.46418	242.61244	1064.83801	206.08765	242.63058	1054.69836	102.40617	364.75073	846.85284	-19.80929	390.09567	619.07233	22.73581	466.81436	723.33124	64.44373	378.79642	380.82086	27.59172	338.97025	184.27733	66.69302	393.23553	277.14047	100.51427	412.15955	846.71667	347.60831	493.03119	623.39648	340.30829	530.17029	789.70654	285.91000	455.17636	484.85577	354.41705	349.06274	255.14461	318.97482	449.43109	350.24054	275.71201	223.16997	181.07899	269.09698	508.67072	48.97368	266.70483	410.76465	65.64613	217.63289	408.80966	61.89363	335.14084	361.59317	82.70024	328.51248	397.75287	134.94873	269.65942	452.91998	53.63895	220.27106	455.79691	52.07095	323.70114	239.53708	64.80638	124.36636	552.28210	57.31676	85.91161	455.17072	35.80781	147.71947	446.48065	32.77096	30.41611	392.24191	30.96294	44.16987	428.04279	96.25718	99.36001	498.15298	35.87741	139.35593	491.49203	41.65072	35.71356	242.62151	1059.76819	154.24692 
41	0.333	497.18793	1462.38293	138.93787	331.38849	1560.20300	135.31200	376.10217	1552.29871	298.26605	366.26184	1549.24854	-0.56014	529.57379	1304.46265	152.27049	250.41656	1342.17590	147.80428	435.47379	1039.62878	297.66653	452.86014	1032.77844	23.22716	251.16901	1065.19177	206.71388	250.74963	1054.96045	102.56609	370.34894	846.36670	-19.53512	393.88922	619.09387	22.52964	471.80026	722.38104	64.35416	380.88651	380.92307	27.52800	339.72211	184.49464	66.73637	394.48743	276.73935	100.34377	421.88980	847.43628	347.03583	504.55362	624.83752	339.56033	540.24084	791.71246	285.77231	470.23404	484.29520	353.84918	373.57260	249.97365	319.10318	469.89728	349.02805	275.42731	250.94571	169.87280	269.34650	542.38434	51.39716	267.68716	444.34439	62.89660	219.05174	441.83453	59.97768	336.04398	393.78418	78.57375	329.44342	427.44006	131.92122	270.31247	486.38248	53.03901	221.35036	489.53409	52.32371	324.78183	240.31116	64.27925	123.11602	552.36884	57.08091	85.86987	454.86761	35.54663	147.54700	446.49649	32.77398	30.39863	392.28409	30.86380	44.10132	428.18988	96.18929	99.39938	498.08453	35.61555	139.14609	491.67078	41.60881	35.50061	250.95932	1060.07605	154.63998 
